<?xml version="1.0" encoding="utf-8"?>
<!-- Generator: Adobe Illustrator 22.0.1, SVG Export Plug-In . SVG Version: 6.00 Build 0)  -->
<svg version="1.1" id="Layer_1" xmlns="http://www.w3.org/2000/svg" xmlns:xlink="http://www.w3.org/1999/xlink" x="0px" y="0px"
	 viewBox="0 0 645.9 485.8" style="enable-background:new 0 0 645.9 485.8;" xml:space="preserve">
<style type="text/css">
	.st0{fill:none;stroke:#404FDB;stroke-width:2;stroke-miterlimit:10;}
	.st1{fill:none;stroke:#F9F9F9;stroke-width:2;stroke-miterlimit:10;}
	.st2{fill:#FFF9E6;}
</style>
<g id="alley_1_">
	<g id="ground_1_">
		<g>
			<line class="st0" x1="613.8" y1="477.2" x2="469.9" y2="60"/>
			<polyline class="st0" points="375.2,60 412.3,382.5 423.2,477.2 			"/>
			<polyline class="st0" points="280.5,60 243.4,382.4 232.5,477.2 			"/>
			<polyline class="st0" points="185.8,60 74.6,382.4 41.8,477.2 			"/>
		</g>
		<g>
			<line class="st0" x1="6.3" y1="398.1" x2="639.6" y2="398.1"/>
			<line class="st0" x1="65.1" y1="252.2" x2="580.8" y2="252.2"/>
			<line class="st0" x1="123.8" y1="106.4" x2="522.1" y2="106.4"/>
		</g>
	</g>
	<g id="cones_1_">
		<g>
			<ellipse class="st1" cx="323" cy="83.8" rx="29.9" ry="9.8"/>
			<ellipse class="st1" cx="323" cy="83.8" rx="29.9" ry="9.8"/>
			<ellipse class="st1" cx="323" cy="83.9" rx="29.9" ry="9.8"/>
			<ellipse class="st1" cx="323" cy="84" rx="29.9" ry="9.8"/>
			<ellipse class="st1" cx="323" cy="84.1" rx="29.9" ry="9.8"/>
			<ellipse class="st1" cx="323" cy="84.1" rx="29.9" ry="9.8"/>
			<ellipse class="st1" cx="323" cy="84.2" rx="29.9" ry="9.8"/>
			<ellipse class="st1" cx="323" cy="84.3" rx="29.9" ry="9.8"/>
			<ellipse class="st1" cx="323" cy="84.4" rx="29.9" ry="9.8"/>
			<ellipse class="st1" cx="323" cy="84.5" rx="29.9" ry="9.8"/>
			<ellipse class="st1" cx="323" cy="84.5" rx="29.9" ry="9.8"/>
			<ellipse class="st1" cx="323" cy="84.6" rx="29.9" ry="9.8"/>
			<ellipse class="st1" cx="323" cy="84.7" rx="29.9" ry="9.8"/>
			<ellipse class="st1" cx="323" cy="84.8" rx="29.9" ry="9.8"/>
			<ellipse class="st1" cx="323" cy="84.8" rx="29.9" ry="9.8"/>
			<ellipse class="st1" cx="323" cy="84.9" rx="29.9" ry="9.8"/>
			<ellipse class="st1" cx="323" cy="85" rx="29.9" ry="9.8"/>
			<ellipse class="st1" cx="323" cy="85.1" rx="29.9" ry="9.8"/>
			<ellipse class="st1" cx="323" cy="85.2" rx="29.9" ry="9.8"/>
			<ellipse class="st1" cx="323" cy="85.2" rx="29.9" ry="9.8"/>
			<ellipse class="st1" cx="323" cy="85.3" rx="29.9" ry="9.8"/>
			<ellipse class="st1" cx="323" cy="85.4" rx="29.9" ry="9.8"/>
			<ellipse class="st1" cx="323" cy="85.5" rx="29.9" ry="9.8"/>
			<ellipse class="st1" cx="323" cy="85.5" rx="29.9" ry="9.8"/>
			<ellipse class="st1" cx="323" cy="85.6" rx="29.9" ry="9.8"/>
			<ellipse class="st1" cx="323" cy="85.7" rx="29.9" ry="9.8"/>
			<ellipse class="st1" cx="323" cy="85.8" rx="29.9" ry="9.8"/>
			<ellipse class="st1" cx="323" cy="85.8" rx="29.9" ry="9.8"/>
			<ellipse class="st1" cx="323" cy="85.9" rx="29.9" ry="9.8"/>
			<ellipse class="st1" cx="323" cy="86" rx="29.9" ry="9.8"/>
			<ellipse class="st1" cx="323" cy="86.1" rx="29.9" ry="9.8"/>
			<ellipse class="st1" cx="323" cy="86.2" rx="29.9" ry="9.8"/>
			<ellipse class="st1" cx="323" cy="86.2" rx="29.9" ry="9.8"/>
			<ellipse class="st1" cx="323" cy="86.3" rx="29.9" ry="9.8"/>
			<ellipse class="st1" cx="323" cy="86.4" rx="29.9" ry="9.8"/>
			<ellipse class="st1" cx="323" cy="86.5" rx="29.9" ry="9.8"/>
			<ellipse class="st1" cx="323" cy="86.5" rx="29.9" ry="9.8"/>
			<ellipse class="st1" cx="323" cy="86.6" rx="29.9" ry="9.8"/>
			<ellipse class="st1" cx="323" cy="86.7" rx="29.9" ry="9.8"/>
			<ellipse class="st1" cx="323" cy="86.8" rx="29.9" ry="9.8"/>
			<ellipse class="st1" cx="323" cy="86.9" rx="29.9" ry="9.8"/>
			<ellipse class="st1" cx="323" cy="86.9" rx="29.9" ry="9.8"/>
			<ellipse class="st1" cx="323" cy="87" rx="29.9" ry="9.8"/>
			<ellipse class="st1" cx="323" cy="87.1" rx="29.9" ry="9.8"/>
			<ellipse class="st1" cx="323" cy="87.2" rx="29.9" ry="9.8"/>
			<ellipse class="st1" cx="323" cy="87.2" rx="29.9" ry="9.8"/>
			<ellipse class="st1" cx="323" cy="87.3" rx="29.9" ry="9.8"/>
			<ellipse class="st1" cx="323" cy="87.4" rx="29.9" ry="9.8"/>
			<ellipse class="st1" cx="323" cy="87.5" rx="29.9" ry="9.8"/>
			<ellipse class="st1" cx="323" cy="87.6" rx="29.9" ry="9.8"/>
			<ellipse class="st1" cx="323" cy="87.6" rx="29.9" ry="9.8"/>
			<ellipse class="st1" cx="323" cy="87.7" rx="29.9" ry="9.8"/>
			<ellipse class="st1" cx="323" cy="87.8" rx="29.9" ry="9.8"/>
			<ellipse class="st1" cx="323" cy="87.9" rx="29.9" ry="9.8"/>
			<ellipse class="st1" cx="323" cy="87.9" rx="29.9" ry="9.8"/>
			<ellipse class="st1" cx="323" cy="88" rx="29.9" ry="9.8"/>
			<ellipse class="st1" cx="323" cy="88.1" rx="29.9" ry="9.8"/>
			<ellipse class="st1" cx="323" cy="88.2" rx="29.9" ry="9.8"/>
			<ellipse class="st1" cx="323" cy="88.2" rx="29.9" ry="9.8"/>
			<ellipse class="st1" cx="323" cy="88.3" rx="29.9" ry="9.8"/>
			<ellipse class="st1" cx="323" cy="88.4" rx="29.9" ry="9.8"/>
			<ellipse class="st1" cx="323" cy="88.5" rx="29.9" ry="9.8"/>
			<ellipse class="st1" cx="323" cy="88.6" rx="29.9" ry="9.8"/>
			<ellipse class="st1" cx="323" cy="88.6" rx="29.9" ry="9.8"/>
			<ellipse class="st1" cx="323" cy="88.7" rx="29.9" ry="9.8"/>
			<ellipse class="st1" cx="323" cy="88.8" rx="29.9" ry="9.8"/>
			<ellipse class="st1" cx="323" cy="88.9" rx="29.9" ry="9.8"/>
			<ellipse class="st1" cx="323" cy="88.9" rx="29.9" ry="9.8"/>
			<ellipse class="st1" cx="323" cy="89" rx="29.9" ry="9.8"/>
			<ellipse class="st1" cx="323" cy="89.1" rx="29.9" ry="9.8"/>
			<ellipse class="st1" cx="323" cy="89.2" rx="29.9" ry="9.8"/>
			<ellipse class="st1" cx="323" cy="89.3" rx="29.9" ry="9.8"/>
			<ellipse class="st1" cx="323" cy="89.3" rx="29.9" ry="9.8"/>
			<ellipse class="st1" cx="323" cy="89.4" rx="29.9" ry="9.8"/>
			<ellipse class="st1" cx="323" cy="89.5" rx="29.9" ry="9.8"/>
			<ellipse class="st1" cx="323" cy="89.6" rx="29.9" ry="9.8"/>
			<ellipse class="st1" cx="323" cy="89.6" rx="29.9" ry="9.8"/>
			<ellipse class="st1" cx="323" cy="89.7" rx="29.9" ry="9.8"/>
			<ellipse class="st1" cx="323" cy="89.8" rx="29.9" ry="9.8"/>
			<ellipse class="st1" cx="323" cy="89.9" rx="29.9" ry="9.8"/>
			<ellipse class="st1" cx="323" cy="89.9" rx="29.9" ry="9.8"/>
			<ellipse class="st1" cx="323" cy="90" rx="29.9" ry="9.8"/>
			<ellipse class="st1" cx="323" cy="90.1" rx="29.9" ry="9.8"/>
			<ellipse class="st1" cx="323" cy="90.2" rx="29.9" ry="9.8"/>
			<ellipse class="st1" cx="323" cy="90.3" rx="29.9" ry="9.8"/>
			<ellipse class="st1" cx="323" cy="90.3" rx="29.9" ry="9.8"/>
			<ellipse class="st1" cx="323" cy="90.4" rx="29.9" ry="9.8"/>
			<ellipse class="st1" cx="323" cy="90.5" rx="29.9" ry="9.8"/>
			<ellipse class="st1" cx="323" cy="90.6" rx="29.9" ry="9.8"/>
			<ellipse class="st1" cx="323" cy="90.6" rx="29.9" ry="9.8"/>
			<ellipse class="st1" cx="323" cy="90.7" rx="29.9" ry="9.8"/>
			<ellipse class="st1" cx="323" cy="90.8" rx="29.9" ry="9.8"/>
			<ellipse class="st1" cx="323" cy="90.9" rx="29.9" ry="9.8"/>
			<ellipse class="st1" cx="323" cy="91" rx="29.9" ry="9.8"/>
			<ellipse class="st1" cx="323" cy="91" rx="29.9" ry="9.8"/>
			<ellipse class="st1" cx="323" cy="91.1" rx="29.9" ry="9.8"/>
			<ellipse class="st1" cx="323" cy="91.2" rx="29.9" ry="9.8"/>
			<ellipse class="st1" cx="323" cy="91.3" rx="29.9" ry="9.8"/>
			<ellipse class="st1" cx="323" cy="91.3" rx="29.9" ry="9.8"/>
			<ellipse class="st1" cx="323" cy="91.4" rx="29.9" ry="9.8"/>
			<ellipse class="st1" cx="323" cy="91.5" rx="29.9" ry="9.8"/>
			<ellipse class="st1" cx="323" cy="91.6" rx="29.9" ry="9.8"/>
		</g>
		<g>
			<ellipse class="st1" cx="323" cy="18.4" rx="29.9" ry="9.8"/>
			<ellipse class="st1" cx="323" cy="18.5" rx="29.9" ry="9.8"/>
			<ellipse class="st1" cx="323" cy="18.6" rx="29.9" ry="9.8"/>
			<ellipse class="st1" cx="323" cy="18.6" rx="29.9" ry="9.8"/>
			<ellipse class="st1" cx="323" cy="18.7" rx="29.9" ry="9.8"/>
			<ellipse class="st1" cx="323" cy="18.8" rx="29.9" ry="9.8"/>
			<ellipse class="st1" cx="323" cy="18.9" rx="29.9" ry="9.8"/>
			<ellipse class="st1" cx="323" cy="18.9" rx="29.9" ry="9.8"/>
			<ellipse class="st1" cx="323" cy="19" rx="29.9" ry="9.8"/>
			<ellipse class="st1" cx="323" cy="19.1" rx="29.9" ry="9.8"/>
			<ellipse class="st1" cx="323" cy="19.2" rx="29.9" ry="9.8"/>
			<ellipse class="st1" cx="323" cy="19.3" rx="29.9" ry="9.8"/>
			<ellipse class="st1" cx="323" cy="19.3" rx="29.9" ry="9.8"/>
			<ellipse class="st1" cx="323" cy="19.4" rx="29.9" ry="9.8"/>
			<ellipse class="st1" cx="323" cy="19.5" rx="29.9" ry="9.8"/>
			<ellipse class="st1" cx="323" cy="19.6" rx="29.9" ry="9.8"/>
			<ellipse class="st1" cx="323" cy="19.6" rx="29.9" ry="9.8"/>
			<ellipse class="st1" cx="323" cy="19.7" rx="29.9" ry="9.8"/>
			<ellipse class="st1" cx="323" cy="19.8" rx="29.9" ry="9.8"/>
			<ellipse class="st1" cx="323" cy="19.9" rx="29.9" ry="9.8"/>
			<ellipse class="st1" cx="323" cy="19.9" rx="29.9" ry="9.8"/>
			<ellipse class="st1" cx="323" cy="20" rx="29.9" ry="9.8"/>
			<ellipse class="st1" cx="323" cy="20.1" rx="29.9" ry="9.8"/>
			<ellipse class="st1" cx="323" cy="20.2" rx="29.9" ry="9.8"/>
			<ellipse class="st1" cx="323" cy="20.3" rx="29.9" ry="9.8"/>
			<ellipse class="st1" cx="323" cy="20.3" rx="29.9" ry="9.8"/>
			<ellipse class="st1" cx="323" cy="20.4" rx="29.9" ry="9.8"/>
			<ellipse class="st1" cx="323" cy="20.5" rx="29.9" ry="9.8"/>
			<ellipse class="st1" cx="323" cy="20.6" rx="29.9" ry="9.8"/>
			<ellipse class="st1" cx="323" cy="20.6" rx="29.9" ry="9.8"/>
			<ellipse class="st1" cx="323" cy="20.7" rx="29.9" ry="9.8"/>
			<ellipse class="st1" cx="323" cy="20.8" rx="29.9" ry="9.8"/>
			<ellipse class="st1" cx="323" cy="20.9" rx="29.9" ry="9.8"/>
			<ellipse class="st1" cx="323" cy="21" rx="29.9" ry="9.8"/>
			<ellipse class="st1" cx="323" cy="21" rx="29.9" ry="9.8"/>
			<ellipse class="st1" cx="323" cy="21.1" rx="29.9" ry="9.8"/>
			<ellipse class="st1" cx="323" cy="21.2" rx="29.9" ry="9.8"/>
			<ellipse class="st1" cx="323" cy="21.3" rx="29.9" ry="9.8"/>
			<ellipse class="st1" cx="323" cy="21.3" rx="29.9" ry="9.8"/>
			<ellipse class="st1" cx="323" cy="21.4" rx="29.9" ry="9.8"/>
			<ellipse class="st1" cx="323" cy="21.5" rx="29.9" ry="9.8"/>
			<ellipse class="st1" cx="323" cy="21.6" rx="29.9" ry="9.8"/>
			<ellipse class="st1" cx="323" cy="21.7" rx="29.9" ry="9.8"/>
			<ellipse class="st1" cx="323" cy="21.7" rx="29.9" ry="9.8"/>
			<ellipse class="st1" cx="323" cy="21.8" rx="29.9" ry="9.8"/>
			<ellipse class="st1" cx="323" cy="21.9" rx="29.9" ry="9.8"/>
			<ellipse class="st1" cx="323" cy="22" rx="29.9" ry="9.8"/>
			<ellipse class="st1" cx="323" cy="22" rx="29.9" ry="9.8"/>
			<ellipse class="st1" cx="323" cy="22.1" rx="29.9" ry="9.8"/>
			<ellipse class="st1" cx="323" cy="22.2" rx="29.9" ry="9.8"/>
			<ellipse class="st1" cx="323" cy="22.3" rx="29.9" ry="9.8"/>
			<ellipse class="st1" cx="323" cy="22.3" rx="29.9" ry="9.8"/>
			<ellipse class="st1" cx="323" cy="22.4" rx="29.9" ry="9.8"/>
			<ellipse class="st1" cx="323" cy="22.5" rx="29.9" ry="9.8"/>
			<ellipse class="st1" cx="323" cy="22.6" rx="29.9" ry="9.8"/>
			<ellipse class="st1" cx="323" cy="22.7" rx="29.9" ry="9.8"/>
			<ellipse class="st1" cx="323" cy="22.7" rx="29.9" ry="9.8"/>
			<ellipse class="st1" cx="323" cy="22.8" rx="29.9" ry="9.8"/>
			<ellipse class="st1" cx="323" cy="22.9" rx="29.9" ry="9.8"/>
			<ellipse class="st1" cx="323" cy="23" rx="29.9" ry="9.8"/>
			<ellipse class="st1" cx="323" cy="23" rx="29.9" ry="9.8"/>
			<ellipse class="st1" cx="323" cy="23.1" rx="29.9" ry="9.8"/>
			<ellipse class="st1" cx="323" cy="23.2" rx="29.9" ry="9.8"/>
			<ellipse class="st1" cx="323" cy="23.3" rx="29.9" ry="9.8"/>
			<ellipse class="st1" cx="323" cy="23.4" rx="29.9" ry="9.8"/>
			<ellipse class="st1" cx="323" cy="23.4" rx="29.9" ry="9.8"/>
			<ellipse class="st1" cx="323" cy="23.5" rx="29.9" ry="9.8"/>
			<ellipse class="st1" cx="323" cy="23.6" rx="29.9" ry="9.8"/>
			<ellipse class="st1" cx="323" cy="23.7" rx="29.9" ry="9.8"/>
			<ellipse class="st1" cx="323" cy="23.7" rx="29.9" ry="9.8"/>
			<ellipse class="st1" cx="323" cy="23.8" rx="29.9" ry="9.8"/>
			<ellipse class="st1" cx="323" cy="23.9" rx="29.9" ry="9.8"/>
			<ellipse class="st1" cx="323" cy="24" rx="29.9" ry="9.8"/>
			<ellipse class="st1" cx="323" cy="24" rx="29.9" ry="9.8"/>
			<ellipse class="st1" cx="323" cy="24.1" rx="29.9" ry="9.8"/>
			<ellipse class="st1" cx="323" cy="24.2" rx="29.9" ry="9.8"/>
			<ellipse class="st1" cx="323" cy="24.3" rx="29.9" ry="9.8"/>
			<ellipse class="st1" cx="323" cy="24.4" rx="29.9" ry="9.8"/>
			<ellipse class="st1" cx="323" cy="24.4" rx="29.9" ry="9.8"/>
			<ellipse class="st1" cx="323" cy="24.5" rx="29.9" ry="9.8"/>
			<ellipse class="st1" cx="323" cy="24.6" rx="29.9" ry="9.8"/>
			<ellipse class="st1" cx="323" cy="24.7" rx="29.9" ry="9.8"/>
			<ellipse class="st1" cx="323" cy="24.7" rx="29.9" ry="9.8"/>
			<ellipse class="st1" cx="323" cy="24.8" rx="29.9" ry="9.8"/>
			<ellipse class="st1" cx="323" cy="24.9" rx="29.9" ry="9.8"/>
			<ellipse class="st1" cx="323" cy="25" rx="29.9" ry="9.8"/>
			<ellipse class="st1" cx="323" cy="25.1" rx="29.9" ry="9.8"/>
			<ellipse class="st1" cx="323" cy="25.1" rx="29.9" ry="9.8"/>
			<ellipse class="st1" cx="323" cy="25.2" rx="29.9" ry="9.8"/>
			<ellipse class="st1" cx="323" cy="25.3" rx="29.9" ry="9.8"/>
			<ellipse class="st1" cx="323" cy="25.4" rx="29.9" ry="9.8"/>
			<ellipse class="st1" cx="323" cy="25.4" rx="29.9" ry="9.8"/>
			<ellipse class="st1" cx="323" cy="25.5" rx="29.9" ry="9.8"/>
			<ellipse class="st1" cx="323" cy="25.6" rx="29.9" ry="9.8"/>
			<ellipse class="st1" cx="323" cy="25.7" rx="29.9" ry="9.8"/>
			<ellipse class="st1" cx="323" cy="25.8" rx="29.9" ry="9.8"/>
			<ellipse class="st1" cx="323" cy="25.8" rx="29.9" ry="9.8"/>
			<ellipse class="st1" cx="323" cy="25.9" rx="29.9" ry="9.8"/>
			<ellipse class="st1" cx="323" cy="26" rx="29.9" ry="9.8"/>
			<ellipse class="st1" cx="323" cy="26.1" rx="29.9" ry="9.8"/>
			<ellipse class="st1" cx="323" cy="26.1" rx="29.9" ry="9.8"/>
			<ellipse class="st1" cx="323" cy="26.2" rx="29.9" ry="9.8"/>
		</g>
		<g>
			<ellipse class="st1" cx="243" cy="18.4" rx="29.9" ry="9.8"/>
			<ellipse class="st1" cx="243" cy="18.5" rx="29.9" ry="9.8"/>
			<ellipse class="st1" cx="243" cy="18.6" rx="29.9" ry="9.8"/>
			<ellipse class="st1" cx="243" cy="18.6" rx="29.9" ry="9.8"/>
			<ellipse class="st1" cx="243" cy="18.7" rx="29.9" ry="9.8"/>
			<ellipse class="st1" cx="243" cy="18.8" rx="29.9" ry="9.8"/>
			<ellipse class="st1" cx="243" cy="18.9" rx="29.9" ry="9.8"/>
			<ellipse class="st1" cx="243" cy="18.9" rx="29.9" ry="9.8"/>
			<ellipse class="st1" cx="243" cy="19" rx="29.9" ry="9.8"/>
			<ellipse class="st1" cx="243" cy="19.1" rx="29.9" ry="9.8"/>
			<ellipse class="st1" cx="243" cy="19.2" rx="29.9" ry="9.8"/>
			<ellipse class="st1" cx="243" cy="19.3" rx="29.9" ry="9.8"/>
			<ellipse class="st1" cx="243" cy="19.3" rx="29.9" ry="9.8"/>
			<ellipse class="st1" cx="243" cy="19.4" rx="29.9" ry="9.8"/>
			<ellipse class="st1" cx="243" cy="19.5" rx="29.9" ry="9.8"/>
			<ellipse class="st1" cx="243" cy="19.6" rx="29.9" ry="9.8"/>
			<ellipse class="st1" cx="243" cy="19.6" rx="29.9" ry="9.8"/>
			<ellipse class="st1" cx="243" cy="19.7" rx="29.9" ry="9.8"/>
			<ellipse class="st1" cx="243" cy="19.8" rx="29.9" ry="9.8"/>
			<ellipse class="st1" cx="243" cy="19.9" rx="29.9" ry="9.8"/>
			<ellipse class="st1" cx="243" cy="19.9" rx="29.9" ry="9.8"/>
			<ellipse class="st1" cx="243" cy="20" rx="29.9" ry="9.8"/>
			<ellipse class="st1" cx="243" cy="20.1" rx="29.9" ry="9.8"/>
			<ellipse class="st1" cx="243" cy="20.2" rx="29.9" ry="9.8"/>
			<ellipse class="st1" cx="243" cy="20.3" rx="29.9" ry="9.8"/>
			<ellipse class="st1" cx="243" cy="20.3" rx="29.9" ry="9.8"/>
			<ellipse class="st1" cx="243" cy="20.4" rx="29.9" ry="9.8"/>
			<ellipse class="st1" cx="243" cy="20.5" rx="29.9" ry="9.8"/>
			<ellipse class="st1" cx="243" cy="20.6" rx="29.9" ry="9.8"/>
			<ellipse class="st1" cx="243" cy="20.6" rx="29.9" ry="9.8"/>
			<ellipse class="st1" cx="243" cy="20.7" rx="29.9" ry="9.8"/>
			<ellipse class="st1" cx="243" cy="20.8" rx="29.9" ry="9.8"/>
			<ellipse class="st1" cx="243" cy="20.9" rx="29.9" ry="9.8"/>
			<ellipse class="st1" cx="243" cy="21" rx="29.9" ry="9.8"/>
			<ellipse class="st1" cx="243" cy="21" rx="29.9" ry="9.8"/>
			<ellipse class="st1" cx="243" cy="21.1" rx="29.9" ry="9.8"/>
			<ellipse class="st1" cx="243" cy="21.2" rx="29.9" ry="9.8"/>
			<ellipse class="st1" cx="243" cy="21.3" rx="29.9" ry="9.8"/>
			<ellipse class="st1" cx="243" cy="21.3" rx="29.9" ry="9.8"/>
			<ellipse class="st1" cx="243" cy="21.4" rx="29.9" ry="9.8"/>
			<ellipse class="st1" cx="243" cy="21.5" rx="29.9" ry="9.8"/>
			<ellipse class="st1" cx="243" cy="21.6" rx="29.9" ry="9.8"/>
			<ellipse class="st1" cx="243" cy="21.7" rx="29.9" ry="9.8"/>
			<ellipse class="st1" cx="243" cy="21.7" rx="29.9" ry="9.8"/>
			<ellipse class="st1" cx="243" cy="21.8" rx="29.9" ry="9.8"/>
			<ellipse class="st1" cx="243" cy="21.9" rx="29.9" ry="9.8"/>
			<ellipse class="st1" cx="243" cy="22" rx="29.9" ry="9.8"/>
			<ellipse class="st1" cx="243" cy="22" rx="29.9" ry="9.8"/>
			<ellipse class="st1" cx="243" cy="22.1" rx="29.9" ry="9.8"/>
			<ellipse class="st1" cx="243" cy="22.2" rx="29.9" ry="9.8"/>
			<ellipse class="st1" cx="243" cy="22.3" rx="29.9" ry="9.8"/>
			<ellipse class="st1" cx="243" cy="22.3" rx="29.9" ry="9.8"/>
			<ellipse class="st1" cx="243" cy="22.4" rx="29.9" ry="9.8"/>
			<ellipse class="st1" cx="243" cy="22.5" rx="29.9" ry="9.8"/>
			<ellipse class="st1" cx="243" cy="22.6" rx="29.9" ry="9.8"/>
			<ellipse class="st1" cx="243" cy="22.7" rx="29.9" ry="9.8"/>
			<ellipse class="st1" cx="243" cy="22.7" rx="29.9" ry="9.8"/>
			<ellipse class="st1" cx="243" cy="22.8" rx="29.9" ry="9.8"/>
			<ellipse class="st1" cx="243" cy="22.9" rx="29.9" ry="9.8"/>
			<ellipse class="st1" cx="243" cy="23" rx="29.9" ry="9.8"/>
			<ellipse class="st1" cx="243" cy="23" rx="29.9" ry="9.8"/>
			<ellipse class="st1" cx="243" cy="23.1" rx="29.9" ry="9.8"/>
			<ellipse class="st1" cx="243" cy="23.2" rx="29.9" ry="9.8"/>
			<ellipse class="st1" cx="243" cy="23.3" rx="29.9" ry="9.8"/>
			<ellipse class="st1" cx="243" cy="23.4" rx="29.9" ry="9.8"/>
			<ellipse class="st1" cx="243" cy="23.4" rx="29.9" ry="9.8"/>
			<ellipse class="st1" cx="243" cy="23.5" rx="29.9" ry="9.8"/>
			<ellipse class="st1" cx="243" cy="23.6" rx="29.9" ry="9.8"/>
			<ellipse class="st1" cx="243" cy="23.7" rx="29.9" ry="9.8"/>
			<ellipse class="st1" cx="243" cy="23.7" rx="29.9" ry="9.8"/>
			<ellipse class="st1" cx="243" cy="23.8" rx="29.9" ry="9.8"/>
			<ellipse class="st1" cx="243" cy="23.9" rx="29.9" ry="9.8"/>
			<ellipse class="st1" cx="243" cy="24" rx="29.9" ry="9.8"/>
			<ellipse class="st1" cx="243" cy="24" rx="29.9" ry="9.8"/>
			<ellipse class="st1" cx="243" cy="24.1" rx="29.9" ry="9.8"/>
			<ellipse class="st1" cx="243" cy="24.2" rx="29.9" ry="9.8"/>
			<ellipse class="st1" cx="243" cy="24.3" rx="29.9" ry="9.8"/>
			<ellipse class="st1" cx="243" cy="24.4" rx="29.9" ry="9.8"/>
			<ellipse class="st1" cx="243" cy="24.4" rx="29.9" ry="9.8"/>
			<ellipse class="st1" cx="243" cy="24.5" rx="29.9" ry="9.8"/>
			<ellipse class="st1" cx="243" cy="24.6" rx="29.9" ry="9.8"/>
			<ellipse class="st1" cx="243" cy="24.7" rx="29.9" ry="9.8"/>
			<ellipse class="st1" cx="243" cy="24.7" rx="29.9" ry="9.8"/>
			<ellipse class="st1" cx="243" cy="24.8" rx="29.9" ry="9.8"/>
			<ellipse class="st1" cx="243" cy="24.9" rx="29.9" ry="9.8"/>
			<ellipse class="st1" cx="243" cy="25" rx="29.9" ry="9.8"/>
			<ellipse class="st1" cx="243" cy="25.1" rx="29.9" ry="9.8"/>
			<ellipse class="st1" cx="243" cy="25.1" rx="29.9" ry="9.8"/>
			<ellipse class="st1" cx="243" cy="25.2" rx="29.9" ry="9.8"/>
			<ellipse class="st1" cx="243" cy="25.3" rx="29.9" ry="9.8"/>
			<ellipse class="st1" cx="243" cy="25.4" rx="29.9" ry="9.8"/>
			<ellipse class="st1" cx="243" cy="25.4" rx="29.9" ry="9.8"/>
			<ellipse class="st1" cx="243" cy="25.5" rx="29.9" ry="9.8"/>
			<ellipse class="st1" cx="243" cy="25.6" rx="29.9" ry="9.8"/>
			<ellipse class="st1" cx="243" cy="25.7" rx="29.9" ry="9.8"/>
			<ellipse class="st1" cx="243" cy="25.8" rx="29.9" ry="9.8"/>
			<ellipse class="st1" cx="243" cy="25.8" rx="29.9" ry="9.8"/>
			<ellipse class="st1" cx="243" cy="25.9" rx="29.9" ry="9.8"/>
			<ellipse class="st1" cx="243" cy="26" rx="29.9" ry="9.8"/>
			<ellipse class="st1" cx="243" cy="26.1" rx="29.9" ry="9.8"/>
			<ellipse class="st1" cx="243" cy="26.1" rx="29.9" ry="9.8"/>
			<ellipse class="st1" cx="243" cy="26.2" rx="29.9" ry="9.8"/>
		</g>
		<g>
			<ellipse class="st1" cx="403" cy="18.4" rx="29.9" ry="9.8"/>
			<ellipse class="st1" cx="403" cy="18.5" rx="29.9" ry="9.8"/>
			<ellipse class="st1" cx="403" cy="18.6" rx="29.9" ry="9.8"/>
			<ellipse class="st1" cx="403" cy="18.6" rx="29.9" ry="9.8"/>
			<ellipse class="st1" cx="403" cy="18.7" rx="29.9" ry="9.8"/>
			<ellipse class="st1" cx="403" cy="18.8" rx="29.9" ry="9.8"/>
			<ellipse class="st1" cx="403" cy="18.9" rx="29.9" ry="9.8"/>
			<ellipse class="st1" cx="403" cy="18.9" rx="29.9" ry="9.8"/>
			<ellipse class="st1" cx="403" cy="19" rx="29.9" ry="9.8"/>
			<ellipse class="st1" cx="403" cy="19.1" rx="29.9" ry="9.8"/>
			<ellipse class="st1" cx="403" cy="19.2" rx="29.9" ry="9.8"/>
			<ellipse class="st1" cx="403" cy="19.3" rx="29.9" ry="9.8"/>
			<ellipse class="st1" cx="403" cy="19.3" rx="29.9" ry="9.8"/>
			<ellipse class="st1" cx="403" cy="19.4" rx="29.9" ry="9.8"/>
			<ellipse class="st1" cx="403" cy="19.5" rx="29.9" ry="9.8"/>
			<ellipse class="st1" cx="403" cy="19.6" rx="29.9" ry="9.8"/>
			<ellipse class="st1" cx="403" cy="19.6" rx="29.9" ry="9.8"/>
			<ellipse class="st1" cx="403" cy="19.7" rx="29.9" ry="9.8"/>
			<ellipse class="st1" cx="403" cy="19.8" rx="29.9" ry="9.8"/>
			<ellipse class="st1" cx="403" cy="19.9" rx="29.9" ry="9.8"/>
			<ellipse class="st1" cx="403" cy="19.9" rx="29.9" ry="9.8"/>
			<ellipse class="st1" cx="403" cy="20" rx="29.9" ry="9.8"/>
			<ellipse class="st1" cx="403" cy="20.1" rx="29.9" ry="9.8"/>
			<ellipse class="st1" cx="403" cy="20.2" rx="29.9" ry="9.8"/>
			<ellipse class="st1" cx="403" cy="20.3" rx="29.9" ry="9.8"/>
			<ellipse class="st1" cx="403" cy="20.3" rx="29.9" ry="9.8"/>
			<ellipse class="st1" cx="403" cy="20.4" rx="29.9" ry="9.8"/>
			<ellipse class="st1" cx="403" cy="20.5" rx="29.9" ry="9.8"/>
			<ellipse class="st1" cx="403" cy="20.6" rx="29.9" ry="9.8"/>
			<ellipse class="st1" cx="403" cy="20.6" rx="29.9" ry="9.8"/>
			<ellipse class="st1" cx="403" cy="20.7" rx="29.9" ry="9.8"/>
			<ellipse class="st1" cx="403" cy="20.8" rx="29.9" ry="9.8"/>
			<ellipse class="st1" cx="403" cy="20.9" rx="29.9" ry="9.8"/>
			<ellipse class="st1" cx="403" cy="21" rx="29.9" ry="9.8"/>
			<ellipse class="st1" cx="403" cy="21" rx="29.9" ry="9.8"/>
			<ellipse class="st1" cx="403" cy="21.1" rx="29.9" ry="9.8"/>
			<ellipse class="st1" cx="403" cy="21.2" rx="29.9" ry="9.8"/>
			<ellipse class="st1" cx="403" cy="21.3" rx="29.9" ry="9.8"/>
			<ellipse class="st1" cx="403" cy="21.3" rx="29.9" ry="9.8"/>
			<ellipse class="st1" cx="403" cy="21.4" rx="29.9" ry="9.8"/>
			<ellipse class="st1" cx="403" cy="21.5" rx="29.9" ry="9.8"/>
			<ellipse class="st1" cx="403" cy="21.6" rx="29.9" ry="9.8"/>
			<ellipse class="st1" cx="403" cy="21.7" rx="29.9" ry="9.8"/>
			<ellipse class="st1" cx="403" cy="21.7" rx="29.9" ry="9.8"/>
			<ellipse class="st1" cx="403" cy="21.8" rx="29.9" ry="9.8"/>
			<ellipse class="st1" cx="403" cy="21.9" rx="29.9" ry="9.8"/>
			<ellipse class="st1" cx="403" cy="22" rx="29.9" ry="9.8"/>
			<ellipse class="st1" cx="403" cy="22" rx="29.9" ry="9.8"/>
			<ellipse class="st1" cx="403" cy="22.1" rx="29.9" ry="9.8"/>
			<ellipse class="st1" cx="403" cy="22.2" rx="29.9" ry="9.8"/>
			<ellipse class="st1" cx="403" cy="22.3" rx="29.9" ry="9.8"/>
			<ellipse class="st1" cx="403" cy="22.3" rx="29.9" ry="9.8"/>
			<ellipse class="st1" cx="403" cy="22.4" rx="29.9" ry="9.8"/>
			<ellipse class="st1" cx="403" cy="22.5" rx="29.9" ry="9.8"/>
			<ellipse class="st1" cx="403" cy="22.6" rx="29.9" ry="9.8"/>
			<ellipse class="st1" cx="403" cy="22.7" rx="29.9" ry="9.8"/>
			<ellipse class="st1" cx="403" cy="22.7" rx="29.9" ry="9.8"/>
			<ellipse class="st1" cx="403" cy="22.8" rx="29.9" ry="9.8"/>
			<ellipse class="st1" cx="403" cy="22.9" rx="29.9" ry="9.8"/>
			<ellipse class="st1" cx="403" cy="23" rx="29.9" ry="9.8"/>
			<ellipse class="st1" cx="403" cy="23" rx="29.9" ry="9.8"/>
			<ellipse class="st1" cx="403" cy="23.1" rx="29.9" ry="9.8"/>
			<ellipse class="st1" cx="403" cy="23.2" rx="29.9" ry="9.8"/>
			<ellipse class="st1" cx="403" cy="23.3" rx="29.9" ry="9.8"/>
			<ellipse class="st1" cx="403" cy="23.4" rx="29.9" ry="9.8"/>
			<ellipse class="st1" cx="403" cy="23.4" rx="29.9" ry="9.8"/>
			<ellipse class="st1" cx="403" cy="23.5" rx="29.9" ry="9.8"/>
			<ellipse class="st1" cx="403" cy="23.6" rx="29.9" ry="9.8"/>
			<ellipse class="st1" cx="403" cy="23.7" rx="29.9" ry="9.8"/>
			<ellipse class="st1" cx="403" cy="23.7" rx="29.9" ry="9.8"/>
			<ellipse class="st1" cx="403" cy="23.8" rx="29.9" ry="9.8"/>
			<ellipse class="st1" cx="403" cy="23.9" rx="29.9" ry="9.8"/>
			<ellipse class="st1" cx="403" cy="24" rx="29.9" ry="9.8"/>
			<ellipse class="st1" cx="403" cy="24" rx="29.9" ry="9.8"/>
			<ellipse class="st1" cx="403" cy="24.1" rx="29.9" ry="9.8"/>
			<ellipse class="st1" cx="403" cy="24.2" rx="29.9" ry="9.8"/>
			<ellipse class="st1" cx="403" cy="24.3" rx="29.9" ry="9.8"/>
			<ellipse class="st1" cx="403" cy="24.4" rx="29.9" ry="9.8"/>
			<ellipse class="st1" cx="403" cy="24.4" rx="29.9" ry="9.8"/>
			<ellipse class="st1" cx="403" cy="24.5" rx="29.9" ry="9.8"/>
			<ellipse class="st1" cx="403" cy="24.6" rx="29.9" ry="9.8"/>
			<ellipse class="st1" cx="403" cy="24.7" rx="29.9" ry="9.8"/>
			<ellipse class="st1" cx="403" cy="24.7" rx="29.9" ry="9.8"/>
			<ellipse class="st1" cx="403" cy="24.8" rx="29.9" ry="9.8"/>
			<ellipse class="st1" cx="403" cy="24.9" rx="29.9" ry="9.8"/>
			<ellipse class="st1" cx="403" cy="25" rx="29.9" ry="9.8"/>
			<ellipse class="st1" cx="403" cy="25.1" rx="29.9" ry="9.8"/>
			<ellipse class="st1" cx="403" cy="25.1" rx="29.9" ry="9.8"/>
			<ellipse class="st1" cx="403" cy="25.2" rx="29.9" ry="9.8"/>
			<ellipse class="st1" cx="403" cy="25.3" rx="29.9" ry="9.8"/>
			<ellipse class="st1" cx="403" cy="25.4" rx="29.9" ry="9.8"/>
			<ellipse class="st1" cx="403" cy="25.4" rx="29.9" ry="9.8"/>
			<ellipse class="st1" cx="403" cy="25.5" rx="29.9" ry="9.8"/>
			<ellipse class="st1" cx="403" cy="25.6" rx="29.9" ry="9.8"/>
			<ellipse class="st1" cx="403" cy="25.7" rx="29.9" ry="9.8"/>
			<ellipse class="st1" cx="403" cy="25.8" rx="29.9" ry="9.8"/>
			<ellipse class="st1" cx="403" cy="25.8" rx="29.9" ry="9.8"/>
			<ellipse class="st1" cx="403" cy="25.9" rx="29.9" ry="9.8"/>
			<ellipse class="st1" cx="403" cy="26" rx="29.9" ry="9.8"/>
			<ellipse class="st1" cx="403" cy="26.1" rx="29.9" ry="9.8"/>
			<ellipse class="st1" cx="403" cy="26.1" rx="29.9" ry="9.8"/>
			<ellipse class="st1" cx="403" cy="26.2" rx="29.9" ry="9.8"/>
		</g>
		<g>
			<ellipse class="st1" cx="283" cy="51.1" rx="29.9" ry="9.8"/>
			<ellipse class="st1" cx="283" cy="51.2" rx="29.9" ry="9.8"/>
			<ellipse class="st1" cx="283" cy="51.2" rx="29.9" ry="9.8"/>
			<ellipse class="st1" cx="283" cy="51.3" rx="29.9" ry="9.8"/>
			<ellipse class="st1" cx="283" cy="51.4" rx="29.9" ry="9.8"/>
			<ellipse class="st1" cx="283" cy="51.5" rx="29.9" ry="9.8"/>
			<ellipse class="st1" cx="283" cy="51.5" rx="29.9" ry="9.8"/>
			<ellipse class="st1" cx="283" cy="51.6" rx="29.9" ry="9.8"/>
			<ellipse class="st1" cx="283" cy="51.7" rx="29.9" ry="9.8"/>
			<ellipse class="st1" cx="283" cy="51.8" rx="29.9" ry="9.8"/>
			<ellipse class="st1" cx="283" cy="51.9" rx="29.9" ry="9.8"/>
			<ellipse class="st1" cx="283" cy="51.9" rx="29.9" ry="9.8"/>
			<ellipse class="st1" cx="283" cy="52" rx="29.9" ry="9.8"/>
			<ellipse class="st1" cx="283" cy="52.1" rx="29.9" ry="9.8"/>
			<ellipse class="st1" cx="283" cy="52.2" rx="29.9" ry="9.8"/>
			<ellipse class="st1" cx="283" cy="52.2" rx="29.9" ry="9.8"/>
			<ellipse class="st1" cx="283" cy="52.3" rx="29.9" ry="9.8"/>
			<ellipse class="st1" cx="283" cy="52.4" rx="29.9" ry="9.8"/>
			<ellipse class="st1" cx="283" cy="52.5" rx="29.9" ry="9.8"/>
			<ellipse class="st1" cx="283" cy="52.6" rx="29.9" ry="9.8"/>
			<ellipse class="st1" cx="283" cy="52.6" rx="29.9" ry="9.8"/>
			<ellipse class="st1" cx="283" cy="52.7" rx="29.9" ry="9.8"/>
			<ellipse class="st1" cx="283" cy="52.8" rx="29.9" ry="9.8"/>
			<ellipse class="st1" cx="283" cy="52.9" rx="29.9" ry="9.8"/>
			<ellipse class="st1" cx="283" cy="52.9" rx="29.9" ry="9.8"/>
			<ellipse class="st1" cx="283" cy="53" rx="29.9" ry="9.8"/>
			<ellipse class="st1" cx="283" cy="53.1" rx="29.9" ry="9.8"/>
			<ellipse class="st1" cx="283" cy="53.2" rx="29.9" ry="9.8"/>
			<ellipse class="st1" cx="283" cy="53.2" rx="29.9" ry="9.8"/>
			<ellipse class="st1" cx="283" cy="53.3" rx="29.9" ry="9.8"/>
			<ellipse class="st1" cx="283" cy="53.4" rx="29.9" ry="9.8"/>
			<ellipse class="st1" cx="283" cy="53.5" rx="29.9" ry="9.8"/>
			<ellipse class="st1" cx="283" cy="53.6" rx="29.9" ry="9.8"/>
			<ellipse class="st1" cx="283" cy="53.6" rx="29.9" ry="9.8"/>
			<ellipse class="st1" cx="283" cy="53.7" rx="29.9" ry="9.8"/>
			<ellipse class="st1" cx="283" cy="53.8" rx="29.9" ry="9.8"/>
			<ellipse class="st1" cx="283" cy="53.9" rx="29.9" ry="9.8"/>
			<ellipse class="st1" cx="283" cy="53.9" rx="29.9" ry="9.8"/>
			<ellipse class="st1" cx="283" cy="54" rx="29.9" ry="9.8"/>
			<ellipse class="st1" cx="283" cy="54.1" rx="29.9" ry="9.8"/>
			<ellipse class="st1" cx="283" cy="54.2" rx="29.9" ry="9.8"/>
			<ellipse class="st1" cx="283" cy="54.3" rx="29.9" ry="9.8"/>
			<ellipse class="st1" cx="283" cy="54.3" rx="29.9" ry="9.8"/>
			<ellipse class="st1" cx="283" cy="54.4" rx="29.9" ry="9.8"/>
			<ellipse class="st1" cx="283" cy="54.5" rx="29.9" ry="9.8"/>
			<ellipse class="st1" cx="283" cy="54.6" rx="29.9" ry="9.8"/>
			<ellipse class="st1" cx="283" cy="54.6" rx="29.9" ry="9.8"/>
			<ellipse class="st1" cx="283" cy="54.7" rx="29.9" ry="9.8"/>
			<ellipse class="st1" cx="283" cy="54.8" rx="29.9" ry="9.8"/>
			<ellipse class="st1" cx="283" cy="54.9" rx="29.9" ry="9.8"/>
			<ellipse class="st1" cx="283" cy="54.9" rx="29.9" ry="9.8"/>
			<ellipse class="st1" cx="283" cy="55" rx="29.9" ry="9.8"/>
			<ellipse class="st1" cx="283" cy="55.1" rx="29.9" ry="9.8"/>
			<ellipse class="st1" cx="283" cy="55.2" rx="29.9" ry="9.8"/>
			<ellipse class="st1" cx="283" cy="55.3" rx="29.9" ry="9.8"/>
			<ellipse class="st1" cx="283" cy="55.3" rx="29.9" ry="9.8"/>
			<ellipse class="st1" cx="283" cy="55.4" rx="29.9" ry="9.8"/>
			<ellipse class="st1" cx="283" cy="55.5" rx="29.9" ry="9.8"/>
			<ellipse class="st1" cx="283" cy="55.6" rx="29.9" ry="9.8"/>
			<ellipse class="st1" cx="283" cy="55.6" rx="29.9" ry="9.8"/>
			<ellipse class="st1" cx="283" cy="55.7" rx="29.9" ry="9.8"/>
			<ellipse class="st1" cx="283" cy="55.8" rx="29.9" ry="9.8"/>
			<ellipse class="st1" cx="283" cy="55.9" rx="29.9" ry="9.8"/>
			<ellipse class="st1" cx="283" cy="56" rx="29.9" ry="9.8"/>
			<ellipse class="st1" cx="283" cy="56" rx="29.9" ry="9.8"/>
			<ellipse class="st1" cx="283" cy="56.1" rx="29.9" ry="9.8"/>
			<ellipse class="st1" cx="283" cy="56.2" rx="29.9" ry="9.8"/>
			<ellipse class="st1" cx="283" cy="56.3" rx="29.9" ry="9.8"/>
			<ellipse class="st1" cx="283" cy="56.3" rx="29.9" ry="9.8"/>
			<ellipse class="st1" cx="283" cy="56.4" rx="29.9" ry="9.8"/>
			<ellipse class="st1" cx="283" cy="56.5" rx="29.9" ry="9.8"/>
			<ellipse class="st1" cx="283" cy="56.6" rx="29.9" ry="9.8"/>
			<ellipse class="st1" cx="283" cy="56.7" rx="29.9" ry="9.8"/>
			<ellipse class="st1" cx="283" cy="56.7" rx="29.9" ry="9.8"/>
			<ellipse class="st1" cx="283" cy="56.8" rx="29.9" ry="9.8"/>
			<ellipse class="st1" cx="283" cy="56.9" rx="29.9" ry="9.8"/>
			<ellipse class="st1" cx="283" cy="57" rx="29.9" ry="9.8"/>
			<ellipse class="st1" cx="283" cy="57" rx="29.9" ry="9.8"/>
			<ellipse class="st1" cx="283" cy="57.1" rx="29.9" ry="9.8"/>
			<ellipse class="st1" cx="283" cy="57.2" rx="29.9" ry="9.8"/>
			<ellipse class="st1" cx="283" cy="57.3" rx="29.9" ry="9.8"/>
			<ellipse class="st1" cx="283" cy="57.3" rx="29.9" ry="9.8"/>
			<ellipse class="st1" cx="283" cy="57.4" rx="29.9" ry="9.8"/>
			<ellipse class="st1" cx="283" cy="57.5" rx="29.9" ry="9.8"/>
			<ellipse class="st1" cx="283" cy="57.6" rx="29.9" ry="9.8"/>
			<ellipse class="st1" cx="283" cy="57.7" rx="29.9" ry="9.8"/>
			<ellipse class="st1" cx="283" cy="57.7" rx="29.9" ry="9.8"/>
			<ellipse class="st1" cx="283" cy="57.8" rx="29.9" ry="9.8"/>
			<ellipse class="st1" cx="283" cy="57.9" rx="29.9" ry="9.8"/>
			<ellipse class="st1" cx="283" cy="58" rx="29.9" ry="9.8"/>
			<ellipse class="st1" cx="283" cy="58" rx="29.9" ry="9.8"/>
			<ellipse class="st1" cx="283" cy="58.1" rx="29.9" ry="9.8"/>
			<ellipse class="st1" cx="283" cy="58.2" rx="29.9" ry="9.8"/>
			<ellipse class="st1" cx="283" cy="58.3" rx="29.9" ry="9.8"/>
			<ellipse class="st1" cx="283" cy="58.4" rx="29.9" ry="9.8"/>
			<ellipse class="st1" cx="283" cy="58.4" rx="29.9" ry="9.8"/>
			<ellipse class="st1" cx="283" cy="58.5" rx="29.9" ry="9.8"/>
			<ellipse class="st1" cx="283" cy="58.6" rx="29.9" ry="9.8"/>
			<ellipse class="st1" cx="283" cy="58.7" rx="29.9" ry="9.8"/>
			<ellipse class="st1" cx="283" cy="58.7" rx="29.9" ry="9.8"/>
			<ellipse class="st1" cx="283" cy="58.8" rx="29.9" ry="9.8"/>
			<ellipse class="st1" cx="283" cy="58.9" rx="29.9" ry="9.8"/>
		</g>
		<g>
			<ellipse class="st1" cx="363" cy="51.1" rx="29.9" ry="9.8"/>
			<ellipse class="st1" cx="363" cy="51.2" rx="29.9" ry="9.8"/>
			<ellipse class="st1" cx="363" cy="51.2" rx="29.9" ry="9.8"/>
			<ellipse class="st1" cx="363" cy="51.3" rx="29.9" ry="9.8"/>
			<ellipse class="st1" cx="363" cy="51.4" rx="29.9" ry="9.8"/>
			<ellipse class="st1" cx="363" cy="51.5" rx="29.9" ry="9.8"/>
			<ellipse class="st1" cx="363" cy="51.5" rx="29.9" ry="9.8"/>
			<ellipse class="st1" cx="363" cy="51.6" rx="29.9" ry="9.8"/>
			<ellipse class="st1" cx="363" cy="51.7" rx="29.9" ry="9.8"/>
			<ellipse class="st1" cx="363" cy="51.8" rx="29.9" ry="9.8"/>
			<ellipse class="st1" cx="363" cy="51.9" rx="29.9" ry="9.8"/>
			<ellipse class="st1" cx="363" cy="51.9" rx="29.9" ry="9.8"/>
			<ellipse class="st1" cx="363" cy="52" rx="29.9" ry="9.8"/>
			<ellipse class="st1" cx="363" cy="52.1" rx="29.9" ry="9.8"/>
			<ellipse class="st1" cx="363" cy="52.2" rx="29.9" ry="9.8"/>
			<ellipse class="st1" cx="363" cy="52.2" rx="29.9" ry="9.8"/>
			<ellipse class="st1" cx="363" cy="52.3" rx="29.9" ry="9.8"/>
			<ellipse class="st1" cx="363" cy="52.4" rx="29.9" ry="9.8"/>
			<ellipse class="st1" cx="363" cy="52.5" rx="29.9" ry="9.8"/>
			<ellipse class="st1" cx="363" cy="52.6" rx="29.9" ry="9.8"/>
			<ellipse class="st1" cx="363" cy="52.6" rx="29.9" ry="9.8"/>
			<ellipse class="st1" cx="363" cy="52.7" rx="29.9" ry="9.8"/>
			<ellipse class="st1" cx="363" cy="52.8" rx="29.9" ry="9.8"/>
			<ellipse class="st1" cx="363" cy="52.9" rx="29.9" ry="9.8"/>
			<ellipse class="st1" cx="363" cy="52.9" rx="29.9" ry="9.8"/>
			<ellipse class="st1" cx="363" cy="53" rx="29.9" ry="9.8"/>
			<ellipse class="st1" cx="363" cy="53.1" rx="29.9" ry="9.8"/>
			<ellipse class="st1" cx="363" cy="53.2" rx="29.9" ry="9.8"/>
			<ellipse class="st1" cx="363" cy="53.2" rx="29.9" ry="9.8"/>
			<ellipse class="st1" cx="363" cy="53.3" rx="29.9" ry="9.8"/>
			<ellipse class="st1" cx="363" cy="53.4" rx="29.9" ry="9.8"/>
			<ellipse class="st1" cx="363" cy="53.5" rx="29.9" ry="9.8"/>
			<ellipse class="st1" cx="363" cy="53.6" rx="29.9" ry="9.8"/>
			<ellipse class="st1" cx="363" cy="53.6" rx="29.9" ry="9.8"/>
			<ellipse class="st1" cx="363" cy="53.7" rx="29.9" ry="9.8"/>
			<ellipse class="st1" cx="363" cy="53.8" rx="29.9" ry="9.8"/>
			<ellipse class="st1" cx="363" cy="53.9" rx="29.9" ry="9.8"/>
			<ellipse class="st1" cx="363" cy="53.9" rx="29.9" ry="9.8"/>
			<ellipse class="st1" cx="363" cy="54" rx="29.9" ry="9.8"/>
			<ellipse class="st1" cx="363" cy="54.1" rx="29.9" ry="9.8"/>
			<ellipse class="st1" cx="363" cy="54.2" rx="29.9" ry="9.8"/>
			<ellipse class="st1" cx="363" cy="54.3" rx="29.9" ry="9.8"/>
			<ellipse class="st1" cx="363" cy="54.3" rx="29.9" ry="9.8"/>
			<ellipse class="st1" cx="363" cy="54.4" rx="29.9" ry="9.8"/>
			<ellipse class="st1" cx="363" cy="54.5" rx="29.9" ry="9.8"/>
			<ellipse class="st1" cx="363" cy="54.6" rx="29.9" ry="9.8"/>
			<ellipse class="st1" cx="363" cy="54.6" rx="29.9" ry="9.8"/>
			<ellipse class="st1" cx="363" cy="54.7" rx="29.9" ry="9.8"/>
			<ellipse class="st1" cx="363" cy="54.8" rx="29.9" ry="9.8"/>
			<ellipse class="st1" cx="363" cy="54.9" rx="29.9" ry="9.8"/>
			<ellipse class="st1" cx="363" cy="54.9" rx="29.9" ry="9.8"/>
			<ellipse class="st1" cx="363" cy="55" rx="29.9" ry="9.8"/>
			<ellipse class="st1" cx="363" cy="55.1" rx="29.9" ry="9.8"/>
			<ellipse class="st1" cx="363" cy="55.2" rx="29.9" ry="9.8"/>
			<ellipse class="st1" cx="363" cy="55.3" rx="29.9" ry="9.8"/>
			<ellipse class="st1" cx="363" cy="55.3" rx="29.9" ry="9.8"/>
			<ellipse class="st1" cx="363" cy="55.4" rx="29.9" ry="9.8"/>
			<ellipse class="st1" cx="363" cy="55.5" rx="29.9" ry="9.8"/>
			<ellipse class="st1" cx="363" cy="55.6" rx="29.9" ry="9.8"/>
			<ellipse class="st1" cx="363" cy="55.6" rx="29.9" ry="9.8"/>
			<ellipse class="st1" cx="363" cy="55.7" rx="29.9" ry="9.8"/>
			<ellipse class="st1" cx="363" cy="55.8" rx="29.9" ry="9.8"/>
			<ellipse class="st1" cx="363" cy="55.9" rx="29.9" ry="9.8"/>
			<ellipse class="st1" cx="363" cy="56" rx="29.9" ry="9.8"/>
			<ellipse class="st1" cx="363" cy="56" rx="29.9" ry="9.8"/>
			<ellipse class="st1" cx="363" cy="56.1" rx="29.9" ry="9.8"/>
			<ellipse class="st1" cx="363" cy="56.2" rx="29.9" ry="9.8"/>
			<ellipse class="st1" cx="363" cy="56.3" rx="29.9" ry="9.8"/>
			<ellipse class="st1" cx="363" cy="56.3" rx="29.9" ry="9.8"/>
			<ellipse class="st1" cx="363" cy="56.4" rx="29.9" ry="9.8"/>
			<ellipse class="st1" cx="363" cy="56.5" rx="29.9" ry="9.8"/>
			<ellipse class="st1" cx="363" cy="56.6" rx="29.9" ry="9.8"/>
			<ellipse class="st1" cx="363" cy="56.7" rx="29.9" ry="9.8"/>
			<ellipse class="st1" cx="363" cy="56.7" rx="29.9" ry="9.8"/>
			<ellipse class="st1" cx="363" cy="56.8" rx="29.9" ry="9.8"/>
			<ellipse class="st1" cx="363" cy="56.9" rx="29.9" ry="9.8"/>
			<ellipse class="st1" cx="363" cy="57" rx="29.9" ry="9.8"/>
			<ellipse class="st1" cx="363" cy="57" rx="29.9" ry="9.8"/>
			<ellipse class="st1" cx="363" cy="57.1" rx="29.9" ry="9.8"/>
			<ellipse class="st1" cx="363" cy="57.2" rx="29.9" ry="9.8"/>
			<ellipse class="st1" cx="363" cy="57.3" rx="29.9" ry="9.8"/>
			<ellipse class="st1" cx="363" cy="57.3" rx="29.9" ry="9.8"/>
			<ellipse class="st1" cx="363" cy="57.4" rx="29.9" ry="9.8"/>
			<ellipse class="st1" cx="363" cy="57.5" rx="29.9" ry="9.8"/>
			<ellipse class="st1" cx="363" cy="57.6" rx="29.9" ry="9.8"/>
			<ellipse class="st1" cx="363" cy="57.7" rx="29.9" ry="9.8"/>
			<ellipse class="st1" cx="363" cy="57.7" rx="29.9" ry="9.8"/>
			<ellipse class="st1" cx="363" cy="57.8" rx="29.9" ry="9.8"/>
			<ellipse class="st1" cx="363" cy="57.9" rx="29.9" ry="9.8"/>
			<ellipse class="st1" cx="363" cy="58" rx="29.9" ry="9.8"/>
			<ellipse class="st1" cx="363" cy="58" rx="29.9" ry="9.8"/>
			<ellipse class="st1" cx="363" cy="58.1" rx="29.9" ry="9.8"/>
			<ellipse class="st1" cx="363" cy="58.2" rx="29.9" ry="9.8"/>
			<ellipse class="st1" cx="363" cy="58.3" rx="29.9" ry="9.8"/>
			<ellipse class="st1" cx="363" cy="58.4" rx="29.9" ry="9.8"/>
			<ellipse class="st1" cx="363" cy="58.4" rx="29.9" ry="9.8"/>
			<ellipse class="st1" cx="363" cy="58.5" rx="29.9" ry="9.8"/>
			<ellipse class="st1" cx="363" cy="58.6" rx="29.9" ry="9.8"/>
			<ellipse class="st1" cx="363" cy="58.7" rx="29.9" ry="9.8"/>
			<ellipse class="st1" cx="363" cy="58.7" rx="29.9" ry="9.8"/>
			<ellipse class="st1" cx="363" cy="58.8" rx="29.9" ry="9.8"/>
			<ellipse class="st1" cx="363" cy="58.9" rx="29.9" ry="9.8"/>
		</g>
	</g>
</g>
<circle class="st2" cx="323.7" cy="261" r="102.8"/>
</svg>
